<svg xmlns="http://www.w3.org/2000/svg" xmlns:xlink="http://www.w3.org/1999/xlink" width="512" viewBox="0 0 384 383.999986" height="512" preserveAspectRatio="xMidYMid meet"><defs><clipPath id="97c0d4e248"><path d="M 50.160156 0 L 333.660156 0 L 333.660156 384 L 50.160156 384 Z M 50.160156 0 " clip-rule="nonzero"></path></clipPath></defs><g clip-path="url(#97c0d4e248)"><path fill="#e83e3c" d="M 266.425781 96.738281 C 234.019531 49.675781 201.167969 10.941406 200.875 10.546875 L 191.859375 0 L 182.898438 10.546875 C 182.550781 10.941406 149.703125 49.675781 117.296875 96.691406 C 72.871094 161.199219 50.363281 210.234375 50.363281 242.414062 C 50.363281 280.214844 65.089844 315.792969 91.832031 342.503906 C 118.574219 369.265625 154.085938 384 191.910156 384 C 229.683594 384 265.246094 369.265625 291.988281 342.503906 C 318.730469 315.746094 333.457031 280.214844 333.457031 242.367188 C 333.359375 210.234375 310.851562 161.199219 266.425781 96.738281 Z M 191.859375 360.394531 C 126.851562 360.394531 73.953125 307.464844 73.953125 242.414062 C 73.953125 223.6875 84.839844 185.542969 136.601562 110.292969 C 158.222656 78.898438 180.039062 51.253906 191.859375 36.714844 C 203.679688 51.203125 225.402344 78.75 247.023438 110.09375 C 265.539062 137.003906 280.265625 161.296875 290.757812 182.390625 C 303.363281 207.722656 309.765625 227.875 309.765625 242.414062 C 309.816406 307.464844 256.871094 360.394531 191.859375 360.394531 Z M 191.859375 360.394531 " fill-opacity="1" fill-rule="nonzero"></path></g><path fill="#e83e3c" d="M 201.316406 100.929688 C 205.207031 95.703125 204.171875 88.3125 198.953125 84.417969 C 193.730469 80.527344 186.34375 81.5625 182.453125 86.785156 C 159.503906 117.339844 138.667969 148.632812 123.746094 174.800781 C 106.113281 205.847656 97.546875 227.925781 97.546875 242.414062 C 97.546875 294.457031 139.851562 336.789062 191.859375 336.789062 C 198.363281 336.789062 203.632812 331.515625 203.632812 325.011719 C 203.632812 318.503906 198.363281 313.230469 191.859375 313.230469 C 152.855469 313.230469 121.085938 281.496094 121.085938 242.414062 C 121.085938 237.832031 123.351562 223.195312 144.234375 186.480469 C 158.664062 161.101562 178.90625 130.742188 201.316406 100.929688 Z M 201.316406 100.929688 " fill-opacity="1" fill-rule="nonzero"></path></svg>