<svg xmlns="http://www.w3.org/2000/svg" xmlns:xlink="http://www.w3.org/1999/xlink" width="512" viewBox="0 0 384 383.999986" height="512" preserveAspectRatio="xMidYMid meet"><defs><clipPath id="064dacbfe8"><path d="M 77 33 L 310.710938 33 L 310.710938 373 L 77 373 Z M 77 33 " clip-rule="nonzero"></path></clipPath></defs><path fill="#e83e3c" d="M 197.96875 147.671875 C 201.90625 115.589844 249.273438 118.507812 249.246094 150.832031 L 249.246094 179.125 C 249.246094 183.699219 246.71875 187.882812 242.664062 190.019531 C 223.996094 199.800781 221.351562 225.503906 237.613281 238.898438 C 240.4375 241.246094 242.089844 244.734375 242.089844 248.40625 L 242.089844 262.28125 C 242.0625 282.175781 213.296875 284.792969 209.660156 265.230469 C 208.757812 260.535156 201.726562 261.832031 202.566406 266.554688 C 207.675781 294.90625 249.394531 291.085938 249.304688 262.28125 L 249.304688 248.40625 C 249.304688 242.570312 246.691406 237.03125 242.179688 233.328125 C 229.917969 223.1875 231.902344 203.804688 246 196.398438 C 252.429688 193.058594 256.457031 186.378906 256.457031 179.125 L 256.457031 150.832031 C 256.425781 70.65625 137.828125 66.382812 132.058594 146.378906 C 130.375 169.945312 134.523438 193.570312 144.171875 215.121094 C 146.214844 219.304688 152.496094 216.503906 150.753906 212.171875 C 141.585938 191.703125 137.648438 169.253906 139.242188 146.890625 C 143.117188 92.476562 215.101562 76.132812 242.03125 123.535156 C 221.683594 109.691406 193.851562 122.300781 190.816406 146.769531 C 190.546875 151.316406 197.160156 152.128906 197.96875 147.671875 " fill-opacity="1" fill-rule="nonzero"></path><path fill="#e83e3c" d="M 202.898438 266.527344 C 202.988281 267.039062 203.679688 268.210938 204.523438 268.691406 C 205.183594 269.085938 205.695312 269.054688 206.234375 269.023438 C 205.574219 267.519531 203.230469 268.269531 202.898438 266.527344 Z M 144.382812 214.488281 C 144.382812 214.546875 144.351562 214.730469 144.382812 214.789062 L 144.472656 215 C 144.410156 214.847656 144.441406 214.667969 144.382812 214.519531 Z M 192.050781 145.144531 C 191.71875 145.597656 191.238281 146.078125 191.175781 146.410156 L 191.148438 146.769531 C 191.238281 146.046875 191.929688 145.835938 192.050781 145.144531 Z M 196.648438 81.671875 C 213.328125 82.273438 229.917969 88.324219 242.480469 100 C 255.046875 111.675781 263.339844 129.074219 263.339844 150.832031 L 263.339844 179.125 C 263.339844 188.9375 257.871094 197.964844 249.183594 202.511719 C 239.234375 207.746094 237.882812 220.867188 246.570312 228.03125 C 252.640625 233.058594 256.15625 240.523438 256.15625 248.40625 L 256.15625 262.253906 C 256.21875 280.007812 242.511719 291.414062 228.507812 292.679688 C 214.5 293.972656 198.902344 285.246094 195.777344 267.789062 L 195.777344 267.730469 C 195.265625 264.839844 196.046875 261.621094 197.789062 259.421875 C 199.503906 257.226562 201.816406 256.050781 204.191406 255.601562 C 206.59375 255.179688 209.210938 255.480469 211.613281 256.925781 C 213.988281 258.371094 215.851562 261.109375 216.394531 263.96875 L 216.394531 264.027344 C 217.597656 270.527344 221.863281 272.125 226.582031 271.703125 C 231.300781 271.28125 235.179688 268.902344 235.179688 262.253906 L 235.179688 248.40625 C 235.179688 246.78125 234.488281 245.246094 233.226562 244.222656 C 213.359375 227.851562 216.664062 195.859375 239.476562 183.910156 C 241.28125 182.976562 242.363281 181.140625 242.363281 179.125 L 242.363281 150.832031 C 242.390625 138.011719 234.007812 132.535156 224.6875 131.960938 C 215.34375 131.359375 206.355469 135.816406 204.792969 148.515625 L 204.761719 148.90625 C 204.25 151.675781 202.476562 154.355469 200.222656 155.828125 C 197.96875 157.304688 195.503906 157.695312 193.160156 157.425781 C 190.816406 157.125 188.441406 156.128906 186.609375 154.144531 C 184.804688 152.15625 183.785156 149.148438 183.933594 146.347656 L 183.933594 146.109375 L 183.992188 145.898438 C 186.609375 124.890625 204.914062 116.101562 223.96875 116.070312 C 212.066406 105.777344 197.820312 100.511719 183.511719 103.761719 C 164.277344 108.125 147.835938 123.144531 146.09375 147.371094 C 144.589844 168.621094 148.316406 189.929688 157.003906 209.371094 L 157.0625 209.492188 L 157.09375 209.582031 C 158.175781 212.230469 158.144531 215.511719 157.003906 217.980469 C 155.832031 220.449219 153.847656 222.132812 151.65625 223.125 C 149.492188 224.089844 146.9375 224.449219 144.320312 223.636719 C 141.675781 222.855469 139.242188 220.71875 138.007812 218.160156 L 137.890625 217.917969 C 127.789062 195.316406 123.433594 170.546875 125.207031 145.835938 C 126.769531 124.136719 136.265625 107.402344 149.640625 96.660156 C 163.015625 85.914062 179.9375 81.070312 196.648438 81.671875 " fill-opacity="1" fill-rule="nonzero"></path><path fill="#e83e3c" d="M 91.695312 143.460938 C 87.96875 195.4375 106.453125 246.601562 142.546875 284.132812 L 201.125 345.078125 C 228.445312 373.488281 276.414062 354.136719 276.414062 314.679688 L 276.414062 302.25 C 276.65625 297.707031 283.355469 297.707031 283.597656 302.25 L 283.597656 314.679688 C 283.628906 360.636719 227.726562 383.179688 195.925781 350.074219 L 137.347656 289.128906 C 99.839844 250.121094 80.605469 196.972656 84.480469 142.949219 C 94.429688 1.460938 304.335938 8.988281 304.15625 150.832031 L 304.15625 197.09375 C 304.09375 201.847656 296.972656 201.847656 296.910156 197.09375 L 296.910156 150.832031 C 296.820312 18.558594 101.25 11.546875 91.695312 143.460938 " fill-opacity="1" fill-rule="nonzero"></path><g clip-path="url(#064dacbfe8)"><path fill="#e83e3c" d="M 198.390625 33.757812 C 226.734375 34.78125 254.804688 45.132812 275.964844 64.816406 C 297.121094 84.53125 311.097656 113.664062 311.039062 150.832031 L 311.039062 197.152344 C 311.007812 200.070312 309.625 203.050781 307.550781 204.917969 C 305.476562 206.753906 302.953125 207.535156 300.519531 207.535156 C 298.113281 207.535156 295.589844 206.753906 293.515625 204.917969 C 291.410156 203.082031 290.058594 200.070312 290.03125 197.152344 L 290.03125 150.832031 C 290 119.441406 278.636719 96.296875 261.476562 80.375 C 244.34375 64.425781 221.171875 55.789062 197.609375 54.976562 C 174.074219 54.101562 150.300781 61.054688 132.058594 75.742188 C 113.816406 90.398438 100.832031 112.671875 98.578125 143.941406 C 94.96875 193.992188 112.761719 243.199219 147.507812 279.347656 L 206.113281 340.292969 C 217.835938 352.480469 233.40625 354.199219 246.449219 348.902344 C 259.523438 343.632812 269.53125 331.59375 269.53125 314.652344 L 269.53125 301.828125 C 269.710938 299.03125 271.09375 296.171875 273.136719 294.425781 C 275.183594 292.679688 277.648438 291.925781 279.992188 291.925781 C 282.367188 291.925781 284.828125 292.679688 286.875 294.425781 C 288.917969 296.171875 290.300781 299.03125 290.449219 301.828125 L 290.511719 302.070312 L 290.511719 314.652344 C 290.511719 340.445312 274.519531 360.246094 254.234375 368.433594 C 233.976562 376.621094 208.820312 373.398438 190.96875 354.859375 L 132.390625 293.882812 C 93.496094 253.464844 73.601562 198.445312 77.597656 142.464844 C 80.210938 105.417969 96.203125 77.277344 118.714844 59.160156 C 141.226562 41.039062 170.019531 32.734375 198.390625 33.757812 " fill-opacity="1" fill-rule="nonzero"></path></g></svg>