<svg xmlns="http://www.w3.org/2000/svg" xmlns:xlink="http://www.w3.org/1999/xlink" width="512" viewBox="0 0 384 383.999986" height="512" preserveAspectRatio="xMidYMid meet"><defs><clipPath id="bb63d201e6"><path d="M 122 0.191406 L 327.867188 0.191406 L 327.867188 383.761719 L 122 383.761719 Z M 122 0.191406 " clip-rule="nonzero"></path></clipPath><clipPath id="157ca61ccd"><path d="M 56.398438 231.410156 L 244 231.410156 L 244 383.761719 L 56.398438 383.761719 Z M 56.398438 231.410156 " clip-rule="nonzero"></path></clipPath></defs><g clip-path="url(#bb63d201e6)"><path fill="#e83e3c" d="M 327.851562 290.121094 C 327.417969 265.601562 309.101562 247.3125 281.375 219.628906 C 277.792969 216.054688 274.09375 212.363281 270.1875 208.414062 C 192.539062 129.964844 181.464844 109.457031 174.128906 95.875 C 173.480469 94.667969 172.855469 93.515625 172.226562 92.390625 C 158.789062 68.324219 150.046875 40.804688 146.242188 10.597656 C 145.847656 7.449219 144.246094 4.636719 141.734375 2.6875 C 139.222656 0.738281 136.097656 -0.113281 132.945312 0.28125 C 126.429688 1.101562 121.796875 7.0625 122.617188 13.566406 C 126.796875 46.816406 136.496094 77.234375 151.429688 103.976562 C 151.996094 104.988281 152.558594 106.027344 153.140625 107.105469 L 153.175781 107.179688 C 161.148438 121.945312 173.199219 144.261719 253.253906 225.140625 C 257.15625 229.082031 260.839844 232.761719 264.402344 236.320312 L 264.535156 236.449219 C 289.007812 260.886719 303.777344 275.628906 304.046875 290.542969 C 304.460938 313.773438 292.160156 324.398438 284.023438 331.433594 C 283.039062 332.28125 282.023438 333.160156 281.097656 334 C 256.820312 356.117188 223.652344 359.539062 210.515625 359.984375 C 203.953125 360.203125 198.796875 365.71875 199.019531 372.269531 C 199.238281 378.714844 204.460938 383.761719 210.910156 383.761719 C 211.050781 383.761719 211.1875 383.757812 211.320312 383.753906 C 230.910156 383.089844 268.109375 378.027344 297.144531 351.574219 C 297.835938 350.945312 298.691406 350.207031 299.605469 349.421875 C 309.691406 340.703125 328.46875 324.480469 327.851562 290.121094 " fill-opacity="1" fill-rule="nonzero"></path></g><g clip-path="url(#157ca61ccd)"><path fill="#e83e3c" d="M 231.5 326.734375 C 234.671875 326.871094 237.722656 325.777344 240.070312 323.632812 C 242.417969 321.492188 243.789062 318.566406 243.933594 315.386719 C 244.078125 312.214844 242.976562 309.175781 240.832031 306.832031 C 238.6875 304.484375 235.757812 303.113281 232.582031 302.964844 C 215.550781 302.195312 199.707031 305.035156 185.492188 311.410156 C 166.308594 320.019531 155.785156 330.609375 153.015625 333.648438 L 152.34375 334.390625 C 134.8125 353.683594 129 357.265625 127.3125 357.914062 C 116.875 361.910156 101.167969 357.371094 91.558594 347.578125 C 78.894531 334.675781 79.351562 316.804688 81.164062 302.675781 C 83.757812 282.476562 96.8125 259.039062 103.222656 250.976562 C 107.308594 245.84375 106.449219 238.34375 101.308594 234.265625 C 96.167969 230.1875 88.660156 231.042969 84.578125 236.179688 C 75.226562 247.933594 60.660156 275.398438 57.542969 299.652344 C 55.242188 317.589844 54.503906 343.800781 74.550781 364.226562 C 86.160156 376.054688 102.734375 383.113281 118.890625 383.113281 C 124.960938 383.113281 130.660156 382.105469 135.839844 380.125 C 145.421875 376.453125 157.90625 363.65625 169.972656 350.382812 L 170.636719 349.648438 C 174.539062 345.363281 183.328125 338.460938 195.246094 333.113281 C 206.03125 328.277344 218.226562 326.128906 231.5 326.734375 " fill-opacity="1" fill-rule="nonzero"></path></g></svg>