<svg xmlns="http://www.w3.org/2000/svg" xmlns:xlink="http://www.w3.org/1999/xlink" width="512" viewBox="0 0 384 383.999986" height="512" preserveAspectRatio="xMidYMid meet"><defs><clipPath id="dbaee58974"><path d="M 0 54.960938 L 384 54.960938 L 384 328.710938 L 0 328.710938 Z M 0 54.960938 " clip-rule="nonzero"></path></clipPath></defs><g clip-path="url(#dbaee58974)"><path fill="#e83e3c" d="M 192 54.960938 C 116.46875 54.960938 54.960938 116.394531 54.960938 191.835938 C 54.960938 267.277344 116.46875 328.710938 192 328.710938 C 267.53125 328.710938 329.039062 267.277344 329.039062 191.835938 C 329.039062 116.394531 267.53125 54.960938 192 54.960938 Z M 41.257812 73.78125 C 15.667969 106.234375 0.144531 147.351562 0.144531 191.835938 C 0.144531 236.320312 15.667969 277.433594 41.257812 309.890625 L 62.667969 292.78125 C 40.722656 264.976562 27.554688 230.0625 27.554688 191.835938 C 27.554688 153.605469 40.722656 118.691406 62.667969 90.890625 Z M 342.742188 73.78125 L 321.332031 90.890625 C 343.277344 118.691406 356.445312 153.605469 356.445312 191.835938 C 356.445312 230.0625 343.277344 264.976562 321.332031 292.78125 L 342.742188 309.890625 C 368.332031 277.433594 383.855469 236.320312 383.855469 191.835938 C 383.855469 147.351562 368.332031 106.234375 342.742188 73.78125 Z M 192 82.335938 C 252.703125 82.335938 301.632812 131.203125 301.632812 191.835938 C 301.632812 252.464844 252.703125 301.335938 192 301.335938 C 131.296875 301.335938 82.367188 252.464844 82.367188 191.835938 C 82.367188 131.203125 131.296875 82.335938 192 82.335938 Z M 178.296875 109.710938 L 178.296875 232.898438 L 205.703125 232.898438 L 205.703125 109.710938 Z M 178.296875 246.585938 L 178.296875 273.960938 L 205.703125 273.960938 L 205.703125 246.585938 Z M 178.296875 246.585938 " fill-opacity="1" fill-rule="nonzero"></path></g></svg>