<svg xmlns="http://www.w3.org/2000/svg" xmlns:xlink="http://www.w3.org/1999/xlink" width="512" viewBox="0 0 384 383.999986" height="512" preserveAspectRatio="xMidYMid meet"><defs><clipPath id="9ef6de0e89"><path d="M 0 54.960938 L 384 54.960938 L 384 328.710938 L 0 328.710938 Z M 0 54.960938 " clip-rule="nonzero"></path></clipPath></defs><g clip-path="url(#9ef6de0e89)"><path fill="#e83e3c" d="M 41.257812 54.960938 C 18.550781 54.960938 0.144531 73.316406 0.144531 96.023438 C 0.65625 158.289062 0.148438 224.191406 0.144531 287.648438 C 0.144531 309.5 17.164062 327.1875 38.6875 328.496094 L 344.457031 328.710938 C 366.378906 327.824219 383.855469 309.789062 383.855469 287.648438 L 383.855469 88.96875 C 380.527344 69.609375 363.699219 54.960938 343.386719 54.960938 C 242.730469 55.007812 141.953125 54.960938 41.253906 54.960938 Z M 40.613281 76.558594 L 344.671875 76.558594 L 197.566406 223.488281 C 194.882812 226.167969 190.613281 226.167969 187.929688 223.488281 Z M 363.300781 87.039062 L 363.300781 286.152344 C 363.300781 298.015625 359.023438 304.714844 350.453125 307.109375 L 246.816406 203.386719 L 363.300781 87.042969 Z M 23.058594 87.894531 L 137.617188 202.316406 L 32.914062 306.894531 C 25.746094 304.480469 23.25 298.714844 23.0625 290.855469 L 23.0625 87.894531 Z M 152.179688 216.640625 L 187.9375 252.570312 C 190.621094 255.25 194.886719 255.25 197.574219 252.570312 L 232.261719 217.921875 L 322.625 308.179688 L 60.535156 308.179688 L 152.179688 216.644531 Z M 152.179688 216.640625 " fill-opacity="1" fill-rule="nonzero"></path></g></svg>