<svg xmlns="http://www.w3.org/2000/svg" xmlns:xlink="http://www.w3.org/1999/xlink" width="512" viewBox="0 0 384 383.999986" height="512" preserveAspectRatio="xMidYMid meet"><path fill="#e83e3c" d="M 192.015625 384 C 190.585938 384 189.21875 383.707031 187.910156 383.128906 C 186.605469 382.546875 185.472656 381.726562 184.515625 380.664062 C 179.199219 374.785156 54.566406 235.695312 54.566406 137.429688 C 54.566406 135.183594 54.621094 132.9375 54.734375 130.691406 C 54.84375 128.445312 55.011719 126.203125 55.234375 123.964844 C 55.453125 121.726562 55.730469 119.496094 56.058594 117.269531 C 56.390625 115.046875 56.777344 112.832031 57.214844 110.625 C 57.65625 108.421875 58.148438 106.226562 58.695312 104.046875 C 59.242188 101.867188 59.84375 99.699219 60.496094 97.546875 C 61.148438 95.394531 61.855469 93.261719 62.613281 91.144531 C 63.371094 89.027344 64.179688 86.929688 65.042969 84.851562 C 65.902344 82.777344 66.816406 80.722656 67.777344 78.6875 C 68.738281 76.65625 69.75 74.648438 70.8125 72.664062 C 71.871094 70.683594 72.980469 68.726562 74.136719 66.796875 C 75.292969 64.871094 76.496094 62.972656 77.746094 61.101562 C 78.996094 59.230469 80.292969 57.394531 81.632812 55.589844 C 82.972656 53.78125 84.355469 52.011719 85.78125 50.273438 C 87.210938 48.535156 88.679688 46.832031 90.1875 45.167969 C 91.699219 43.5 93.25 41.875 94.839844 40.285156 C 96.429688 38.695312 98.058594 37.144531 99.726562 35.632812 C 101.394531 34.125 103.097656 32.65625 104.835938 31.230469 C 106.574219 29.804688 108.347656 28.421875 110.152344 27.082031 C 111.957031 25.742188 113.796875 24.449219 115.667969 23.199219 C 117.539062 21.949219 119.4375 20.746094 121.367188 19.589844 C 123.296875 18.4375 125.25 17.328125 127.234375 16.269531 C 129.21875 15.207031 131.226562 14.199219 133.261719 13.238281 C 135.292969 12.277344 137.347656 11.363281 139.425781 10.503906 C 141.503906 9.644531 143.601562 8.835938 145.71875 8.078125 C 147.835938 7.320312 149.972656 6.617188 152.125 5.960938 C 154.277344 5.308594 156.441406 4.710938 158.625 4.164062 C 160.804688 3.617188 163 3.125 165.207031 2.6875 C 167.410156 2.25 169.625 1.863281 171.851562 1.535156 C 174.074219 1.203125 176.308594 0.929688 178.546875 0.707031 C 180.785156 0.488281 183.027344 0.324219 185.273438 0.214844 C 187.519531 0.101562 189.765625 0.046875 192.015625 0.046875 C 194.265625 0.046875 196.511719 0.101562 198.757812 0.214844 C 201.003906 0.324219 203.246094 0.488281 205.484375 0.707031 C 207.722656 0.929688 209.953125 1.203125 212.179688 1.535156 C 214.402344 1.863281 216.617188 2.25 218.824219 2.6875 C 221.03125 3.125 223.222656 3.617188 225.40625 4.164062 C 227.585938 4.710938 229.753906 5.308594 231.90625 5.960938 C 234.058594 6.617188 236.191406 7.320312 238.308594 8.078125 C 240.429688 8.835938 242.527344 9.644531 244.601562 10.503906 C 246.679688 11.363281 248.738281 12.277344 250.769531 13.238281 C 252.804688 14.199219 254.8125 15.207031 256.792969 16.269531 C 258.777344 17.328125 260.734375 18.4375 262.664062 19.589844 C 264.59375 20.746094 266.492188 21.949219 268.363281 23.199219 C 270.234375 24.449219 272.070312 25.742188 273.878906 27.082031 C 275.683594 28.421875 277.457031 29.804688 279.195312 31.230469 C 280.933594 32.65625 282.636719 34.125 284.304688 35.632812 C 285.96875 37.144531 287.597656 38.695312 289.1875 40.285156 C 290.78125 41.875 292.332031 43.5 293.839844 45.167969 C 295.351562 46.832031 296.820312 48.535156 298.246094 50.273438 C 299.675781 52.011719 301.058594 53.78125 302.398438 55.589844 C 303.738281 57.394531 305.03125 59.230469 306.28125 61.101562 C 307.53125 62.972656 308.734375 64.871094 309.894531 66.796875 C 311.050781 68.726562 312.15625 70.683594 313.21875 72.664062 C 314.277344 74.648438 315.289062 76.65625 316.253906 78.6875 C 317.214844 80.722656 318.125 82.777344 318.988281 84.851562 C 319.847656 86.929688 320.660156 89.027344 321.417969 91.144531 C 322.175781 93.261719 322.878906 95.394531 323.535156 97.546875 C 324.1875 99.699219 324.789062 101.867188 325.335938 104.046875 C 325.882812 106.226562 326.375 108.421875 326.816406 110.625 C 327.253906 112.832031 327.640625 115.046875 327.96875 117.269531 C 328.300781 119.496094 328.578125 121.726562 328.796875 123.964844 C 329.019531 126.203125 329.183594 128.445312 329.296875 130.691406 C 329.40625 132.9375 329.460938 135.183594 329.464844 137.429688 C 329.464844 235.695312 204.828125 374.785156 199.515625 380.664062 C 198.554688 381.726562 197.425781 382.546875 196.117188 383.128906 C 194.8125 383.707031 193.445312 384 192.015625 384 Z M 192.015625 20.210938 C 190.097656 20.210938 188.179688 20.261719 186.265625 20.359375 C 184.347656 20.453125 182.4375 20.597656 180.527344 20.789062 C 178.621094 20.976562 176.71875 21.214844 174.820312 21.496094 C 172.921875 21.78125 171.035156 22.109375 169.152344 22.484375 C 167.273438 22.863281 165.402344 23.285156 163.542969 23.75 C 161.683594 24.21875 159.835938 24.730469 158 25.289062 C 156.164062 25.847656 154.34375 26.449219 152.539062 27.097656 C 150.734375 27.746094 148.945312 28.4375 147.171875 29.171875 C 145.402344 29.90625 143.648438 30.683594 141.914062 31.503906 C 140.183594 32.324219 138.46875 33.1875 136.777344 34.09375 C 135.085938 35 133.417969 35.945312 131.773438 36.929688 C 130.128906 37.917969 128.511719 38.941406 126.914062 40.007812 C 125.320312 41.074219 123.753906 42.179688 122.214844 43.324219 C 120.671875 44.464844 119.160156 45.644531 117.679688 46.863281 C 116.195312 48.078125 114.746094 49.332031 113.324219 50.617188 C 111.902344 51.90625 110.515625 53.230469 109.160156 54.585938 C 107.800781 55.941406 106.480469 57.328125 105.191406 58.75 C 103.902344 60.171875 102.652344 61.621094 101.433594 63.105469 C 100.21875 64.585938 99.035156 66.097656 97.894531 67.640625 C 96.75 69.179688 95.648438 70.746094 94.582031 72.339844 C 93.515625 73.933594 92.488281 75.554688 91.5 77.199219 C 90.515625 78.84375 89.570312 80.511719 88.664062 82.203125 C 87.757812 83.894531 86.894531 85.605469 86.074219 87.339844 C 85.253906 89.070312 84.476562 90.824219 83.742188 92.59375 C 83.007812 94.367188 82.316406 96.15625 81.667969 97.960938 C 81.019531 99.765625 80.417969 101.585938 79.859375 103.417969 C 79.300781 105.253906 78.789062 107.101562 78.320312 108.960938 C 77.851562 110.820312 77.429688 112.691406 77.054688 114.574219 C 76.679688 116.453125 76.351562 118.34375 76.066406 120.238281 C 75.785156 122.136719 75.546875 124.039062 75.355469 125.945312 C 75.167969 127.855469 75.023438 129.765625 74.925781 131.683594 C 74.832031 133.597656 74.78125 135.515625 74.78125 137.429688 C 74.78125 214.796875 165.070312 326.765625 192.015625 358.472656 C 218.957031 326.765625 309.25 214.796875 309.25 137.429688 C 309.25 135.515625 309.199219 133.597656 309.101562 131.683594 C 309.007812 129.765625 308.863281 127.855469 308.671875 125.945312 C 308.484375 124.039062 308.246094 122.136719 307.964844 120.238281 C 307.679688 118.34375 307.351562 116.453125 306.972656 114.574219 C 306.597656 112.691406 306.175781 110.820312 305.710938 108.960938 C 305.242188 107.101562 304.730469 105.253906 304.171875 103.417969 C 303.613281 101.585938 303.011719 99.765625 302.363281 97.960938 C 301.714844 96.15625 301.023438 94.367188 300.289062 92.59375 C 299.554688 90.824219 298.777344 89.070312 297.953125 87.339844 C 297.132812 85.605469 296.269531 83.894531 295.367188 82.203125 C 294.460938 80.511719 293.515625 78.84375 292.527344 77.199219 C 291.542969 75.554688 290.515625 73.933594 289.449219 72.339844 C 288.382812 70.746094 287.277344 69.179688 286.136719 67.640625 C 284.992188 66.097656 283.8125 64.585938 282.597656 63.105469 C 281.378906 61.621094 280.125 60.171875 278.839844 58.75 C 277.550781 57.328125 276.226562 55.941406 274.871094 54.585938 C 273.515625 53.230469 272.125 51.90625 270.707031 50.617188 C 269.285156 49.332031 267.832031 48.078125 266.351562 46.863281 C 264.867188 45.644531 263.355469 44.464844 261.816406 43.324219 C 260.277344 42.179688 258.707031 41.074219 257.113281 40.007812 C 255.519531 38.941406 253.898438 37.917969 252.253906 36.929688 C 250.609375 35.945312 248.941406 35 247.25 34.09375 C 245.558594 33.1875 243.847656 32.324219 242.113281 31.503906 C 240.382812 30.683594 238.628906 29.90625 236.855469 29.171875 C 235.085938 28.4375 233.296875 27.746094 231.492188 27.097656 C 229.6875 26.449219 227.867188 25.847656 226.03125 25.289062 C 224.195312 24.730469 222.347656 24.21875 220.488281 23.75 C 218.628906 23.285156 216.757812 22.863281 214.875 22.484375 C 212.996094 22.109375 211.105469 21.78125 209.210938 21.496094 C 207.3125 21.214844 205.410156 20.976562 203.5 20.789062 C 201.59375 20.597656 199.679688 20.453125 197.765625 20.359375 C 195.851562 20.261719 193.933594 20.210938 192.015625 20.210938 Z M 192.015625 193.011719 C 190.195312 193.011719 188.378906 192.921875 186.566406 192.742188 C 184.753906 192.566406 182.957031 192.296875 181.171875 191.941406 C 179.386719 191.585938 177.621094 191.144531 175.878906 190.617188 C 174.136719 190.089844 172.425781 189.476562 170.742188 188.78125 C 169.0625 188.082031 167.417969 187.304688 165.8125 186.449219 C 164.207031 185.589844 162.648438 184.65625 161.132812 183.644531 C 159.621094 182.632812 158.160156 181.550781 156.75 180.394531 C 155.34375 179.238281 153.996094 178.019531 152.710938 176.730469 C 151.421875 175.445312 150.203125 174.097656 149.046875 172.691406 C 147.890625 171.285156 146.808594 169.824219 145.796875 168.308594 C 144.785156 166.796875 143.851562 165.238281 142.992188 163.632812 C 142.132812 162.027344 141.355469 160.382812 140.660156 158.699219 C 139.964844 157.019531 139.351562 155.308594 138.824219 153.566406 C 138.292969 151.824219 137.851562 150.058594 137.496094 148.273438 C 137.140625 146.488281 136.875 144.691406 136.695312 142.878906 C 136.519531 141.066406 136.429688 139.25 136.429688 137.429688 C 136.429688 135.609375 136.519531 133.796875 136.695312 131.984375 C 136.875 130.171875 137.140625 128.375 137.496094 126.589844 C 137.851562 124.804688 138.292969 123.039062 138.824219 121.296875 C 139.351562 119.554688 139.964844 117.84375 140.660156 116.164062 C 141.355469 114.480469 142.132812 112.835938 142.992188 111.230469 C 143.851562 109.625 144.785156 108.066406 145.796875 106.554688 C 146.808594 105.039062 147.890625 103.578125 149.046875 102.171875 C 150.203125 100.765625 151.421875 99.417969 152.710938 98.132812 C 153.996094 96.84375 155.34375 95.625 156.75 94.46875 C 158.160156 93.3125 159.621094 92.230469 161.132812 91.21875 C 162.648438 90.207031 164.207031 89.273438 165.8125 88.414062 C 167.417969 87.558594 169.0625 86.78125 170.742188 86.082031 C 172.425781 85.386719 174.136719 84.773438 175.878906 84.246094 C 177.621094 83.71875 179.386719 83.277344 181.171875 82.921875 C 182.957031 82.566406 184.753906 82.296875 186.566406 82.121094 C 188.378906 81.941406 190.195312 81.851562 192.015625 81.851562 C 193.835938 81.851562 195.652344 81.941406 197.464844 82.121094 C 199.273438 82.296875 201.074219 82.566406 202.859375 82.921875 C 204.644531 83.277344 206.410156 83.71875 208.152344 84.246094 C 209.894531 84.773438 211.605469 85.386719 213.285156 86.082031 C 214.96875 86.78125 216.613281 87.558594 218.21875 88.414062 C 219.824219 89.273438 221.382812 90.207031 222.898438 91.21875 C 224.410156 92.230469 225.871094 93.3125 227.277344 94.46875 C 228.683594 95.625 230.03125 96.84375 231.320312 98.132812 C 232.605469 99.417969 233.828125 100.765625 234.984375 102.171875 C 236.136719 103.578125 237.222656 105.039062 238.234375 106.554688 C 239.246094 108.066406 240.179688 109.625 241.039062 111.230469 C 241.894531 112.835938 242.671875 114.480469 243.371094 116.164062 C 244.066406 117.84375 244.679688 119.554688 245.207031 121.296875 C 245.734375 123.039062 246.175781 124.804688 246.53125 126.589844 C 246.886719 128.375 247.15625 130.171875 247.332031 131.984375 C 247.511719 133.796875 247.601562 135.609375 247.601562 137.429688 C 247.597656 139.25 247.507812 141.066406 247.328125 142.878906 C 247.148438 144.6875 246.878906 146.484375 246.523438 148.269531 C 246.167969 150.054688 245.722656 151.816406 245.195312 153.558594 C 244.664062 155.300781 244.050781 157.011719 243.351562 158.691406 C 242.65625 160.371094 241.878906 162.015625 241.019531 163.621094 C 240.160156 165.222656 239.226562 166.78125 238.214844 168.296875 C 237.203125 169.808594 236.121094 171.269531 234.964844 172.675781 C 233.808594 174.082031 232.589844 175.425781 231.300781 176.714844 C 230.015625 178 228.667969 179.222656 227.261719 180.375 C 225.855469 181.53125 224.394531 182.613281 222.882812 183.625 C 221.371094 184.636719 219.8125 185.570312 218.207031 186.429688 C 216.601562 187.289062 214.957031 188.066406 213.277344 188.761719 C 211.597656 189.460938 209.886719 190.074219 208.144531 190.605469 C 206.402344 191.132812 204.640625 191.574219 202.855469 191.933594 C 201.070312 192.289062 199.273438 192.558594 197.460938 192.738281 C 195.652344 192.917969 193.835938 193.007812 192.015625 193.011719 Z M 192.015625 102.0625 C 190.855469 102.0625 189.699219 102.121094 188.546875 102.234375 C 187.394531 102.347656 186.25 102.515625 185.113281 102.742188 C 183.976562 102.96875 182.855469 103.25 181.746094 103.585938 C 180.636719 103.921875 179.546875 104.3125 178.476562 104.753906 C 177.40625 105.199219 176.363281 105.695312 175.339844 106.238281 C 174.320312 106.785156 173.324219 107.378906 172.363281 108.023438 C 171.398438 108.667969 170.46875 109.355469 169.574219 110.089844 C 168.679688 110.828125 167.820312 111.601562 167.003906 112.421875 C 166.183594 113.242188 165.40625 114.097656 164.671875 114.992188 C 163.9375 115.890625 163.246094 116.820312 162.605469 117.78125 C 161.960938 118.746094 161.363281 119.738281 160.820312 120.757812 C 160.273438 121.78125 159.777344 122.828125 159.335938 123.898438 C 158.890625 124.96875 158.5 126.054688 158.164062 127.164062 C 157.828125 128.273438 157.546875 129.394531 157.320312 130.53125 C 157.097656 131.667969 156.925781 132.8125 156.8125 133.964844 C 156.699219 135.117188 156.640625 136.273438 156.640625 137.429688 C 156.640625 138.589844 156.699219 139.746094 156.8125 140.898438 C 156.925781 142.050781 157.097656 143.195312 157.320312 144.332031 C 157.546875 145.46875 157.828125 146.589844 158.164062 147.699219 C 158.5 148.808594 158.890625 149.894531 159.335938 150.964844 C 159.777344 152.035156 160.273438 153.082031 160.820312 154.105469 C 161.363281 155.125 161.960938 156.117188 162.605469 157.082031 C 163.246094 158.042969 163.9375 158.972656 164.671875 159.867188 C 165.40625 160.765625 166.183594 161.621094 167.003906 162.441406 C 167.820312 163.261719 168.679688 164.035156 169.574219 164.773438 C 170.46875 165.507812 171.398438 166.195312 172.363281 166.839844 C 173.324219 167.484375 174.320312 168.078125 175.339844 168.625 C 176.363281 169.167969 177.40625 169.664062 178.476562 170.109375 C 179.546875 170.550781 180.636719 170.941406 181.746094 171.277344 C 182.855469 171.613281 183.976562 171.894531 185.113281 172.121094 C 186.25 172.347656 187.394531 172.515625 188.546875 172.628906 C 189.699219 172.742188 190.855469 172.800781 192.015625 172.800781 C 193.171875 172.800781 194.328125 172.742188 195.480469 172.628906 C 196.636719 172.515625 197.78125 172.347656 198.914062 172.121094 C 200.050781 171.894531 201.175781 171.613281 202.28125 171.277344 C 203.390625 170.941406 204.480469 170.550781 205.550781 170.109375 C 206.621094 169.664062 207.667969 169.167969 208.691406 168.625 C 209.710938 168.078125 210.703125 167.484375 211.667969 166.839844 C 212.628906 166.195312 213.558594 165.507812 214.457031 164.773438 C 215.351562 164.035156 216.207031 163.261719 217.027344 162.441406 C 217.847656 161.621094 218.625 160.765625 219.359375 159.867188 C 220.09375 158.972656 220.78125 158.042969 221.425781 157.082031 C 222.070312 156.117188 222.664062 155.125 223.210938 154.105469 C 223.757812 153.082031 224.25 152.035156 224.695312 150.964844 C 225.136719 149.894531 225.527344 148.808594 225.863281 147.699219 C 226.199219 146.589844 226.480469 145.46875 226.707031 144.332031 C 226.933594 143.195312 227.105469 142.050781 227.21875 140.898438 C 227.332031 139.746094 227.386719 138.589844 227.386719 137.429688 C 227.386719 136.273438 227.328125 135.117188 227.214844 133.964844 C 227.097656 132.8125 226.929688 131.667969 226.703125 130.535156 C 226.472656 129.398438 226.191406 128.277344 225.855469 127.167969 C 225.519531 126.0625 225.128906 124.972656 224.683594 123.902344 C 224.242188 122.832031 223.746094 121.789062 223.199219 120.765625 C 222.652344 119.746094 222.058594 118.753906 221.414062 117.792969 C 220.769531 116.828125 220.082031 115.898438 219.347656 115.003906 C 218.613281 114.109375 217.835938 113.253906 217.015625 112.433594 C 216.195312 111.617188 215.339844 110.839844 214.445312 110.105469 C 213.550781 109.367188 212.621094 108.679688 211.65625 108.035156 C 210.695312 107.390625 209.703125 106.796875 208.679688 106.25 C 207.660156 105.703125 206.613281 105.210938 205.546875 104.765625 C 204.476562 104.324219 203.386719 103.933594 202.277344 103.59375 C 201.171875 103.257812 200.046875 102.976562 198.914062 102.75 C 197.777344 102.523438 196.632812 102.351562 195.480469 102.238281 C 194.328125 102.121094 193.171875 102.066406 192.015625 102.0625 Z M 192.015625 102.0625 " fill-opacity="1" fill-rule="nonzero"></path></svg>