<svg xmlns="http://www.w3.org/2000/svg" xmlns:xlink="http://www.w3.org/1999/xlink" width="512" viewBox="0 0 384 383.999986" height="512" preserveAspectRatio="xMidYMid meet"><path fill="#e83e3c" d="M 349.457031 342.867188 L 349.542969 342.867188 Z M 68.492188 31.347656 C 64.976562 31.347656 61.652344 32.9375 58.0625 36.085938 C 57.652344 36.472656 52.554688 41.308594 49.164062 44.523438 L 46.074219 47.457031 C 28.800781 63.597656 20.964844 92.671875 26.125 121.539062 C 27.789062 130.875 30.476562 140.539062 34.101562 150.277344 C 52.402344 199.414062 87.164062 242.148438 113.101562 269.339844 C 138.917969 296.726562 179.757812 333.707031 227.863281 354.597656 C 237.390625 358.742188 246.914062 361.933594 256.148438 364.101562 C 284.726562 370.792969 314.1875 364.527344 331.234375 348.152344 L 335.074219 344.507812 C 338.320312 341.429688 342.613281 337.371094 343.296875 336.714844 C 353.816406 325.90625 348.5 316.859375 327.269531 295.265625 L 321.9375 289.800781 C 308.429688 275.796875 285.808594 252.351562 266.691406 254.621094 C 261.527344 255.230469 256.105469 259.007812 250.359375 263.023438 C 244.632812 267.023438 238.707031 271.160156 231.574219 273.410156 C 212.464844 279.460938 193.078125 275.492188 176.972656 262.226562 C 167.382812 254.320312 157.609375 245.074219 148.722656 235.480469 C 139.773438 226.265625 131.054688 216.023438 123.660156 206.011719 C 111.269531 189.234375 108.339844 169.664062 115.40625 150.914062 C 118.046875 143.921875 122.496094 138.226562 126.800781 132.714844 C 131.109375 127.195312 135.175781 121.988281 136.066406 116.871094 C 139.34375 97.894531 117.140625 74.074219 103.871094 59.851562 L 98.679688 54.226562 C 84.65625 38.882812 76.128906 31.347656 68.492188 31.347656 Z M 279.183594 384.125 C 269.605469 384.125 260.394531 382.964844 252.179688 381.046875 C 241.925781 378.644531 231.414062 375.109375 220.925781 370.554688 C 170.113281 348.484375 127.371094 309.847656 100.46875 281.316406 C 73.4375 252.972656 37.113281 208.253906 17.789062 156.351562 C 13.792969 145.640625 10.828125 134.949219 8.988281 124.585938 C 4.074219 97.125 8.121094 59.089844 34.1875 34.738281 L 37.175781 31.902344 C 40.8125 28.460938 46.34375 23.214844 46.570312 23.023438 C 72.722656 0.0625 96.082031 25.585938 111.542969 42.488281 L 116.609375 47.992188 C 132.082031 64.578125 157.972656 92.34375 153.21875 119.835938 C 151.59375 129.253906 145.710938 136.78125 140.523438 143.425781 C 136.867188 148.109375 133.40625 152.535156 131.707031 157.042969 C 126.71875 170.277344 128.78125 183.636719 137.671875 195.679688 C 144.609375 205.070312 152.800781 214.695312 161.367188 223.511719 C 169.863281 232.6875 179.042969 241.378906 188.050781 248.800781 C 199.605469 258.308594 212.824219 261.085938 226.316406 256.828125 C 230.917969 255.367188 235.527344 252.152344 240.40625 248.746094 C 247.3125 243.925781 255.144531 238.460938 264.644531 237.335938 C 292.339844 233.996094 318.726562 261.390625 334.472656 277.726562 L 339.683594 283.0625 C 355.75 299.394531 380.003906 324.074219 355.679688 348.957031 L 355.679688 348.949219 C 355.324219 349.296875 350.597656 353.792969 347.039062 357.152344 L 343.304688 360.6875 C 325.351562 377.9375 301.308594 384.125 279.183594 384.125 " fill-opacity="1" fill-rule="nonzero"></path><path fill="#e83e3c" d="M 293.945312 202.910156 C 289.375 202.910156 285.539062 199.34375 285.265625 194.722656 C 283.875 171.296875 274.230469 149.023438 258.105469 132.015625 C 241.964844 115 220.226562 104.175781 196.894531 101.535156 C 192.117188 100.996094 188.679688 96.6875 189.226562 91.910156 C 189.769531 87.136719 194.097656 83.707031 198.851562 84.246094 C 226.25 87.351562 251.785156 100.0625 270.730469 120.042969 C 289.6875 140.019531 301.019531 166.179688 302.648438 193.695312 C 302.929688 198.492188 299.269531 202.613281 294.472656 202.894531 C 294.296875 202.910156 294.121094 202.910156 293.945312 202.910156 " fill-opacity="1" fill-rule="nonzero"></path><path fill="#e83e3c" d="M 359.074219 212.753906 C 354.5 212.753906 350.667969 209.191406 350.394531 204.566406 C 347.875 162.191406 330.425781 121.902344 301.25 91.136719 C 272.070312 60.359375 232.753906 40.785156 190.542969 36.015625 C 185.765625 35.476562 182.328125 31.167969 182.878906 26.390625 C 183.410156 21.617188 187.730469 18.164062 192.5 18.722656 C 238.785156 23.953125 281.890625 45.414062 313.882812 79.160156 C 345.882812 112.902344 365.019531 157.074219 367.773438 203.539062 C 368.054688 208.339844 364.398438 212.457031 359.597656 212.738281 C 359.421875 212.746094 359.246094 212.753906 359.074219 212.753906 " fill-opacity="1" fill-rule="nonzero"></path></svg>